# xmcd CD database file
#
# Track frame offsets:
#	150
#	34483
#	66825
#	103720
#	133625
#	163790
#	180960
#	208538
#	234773
#
# Disc length: 3584 seconds
#
# Revision: 0
# Processed by: cddbd v1.5.1PL0 Copyright (c) Steve Scherf et al.
# Submitted via: CDex 1.51
#
DISCID=740dfe09
DTITLE=Zao - Akhenaton
DYEAR=1994
DGENRE=Jazz
TTITLE0=Elioth
TTITLE1=Thebes
TTITLE2=Baityare
TTITLE3=Cobra
TTITLE4=Yzzo
TTITLE5=Sable
TTITLE6=Ozz
TTITLE7=Sakkarah
TTITLE8=Des Fleurs pour Nefertiti
EXTD=YEAR: 1994
EXTT0=
EXTT1=
EXTT2=
EXTT3=
EXTT4=
EXTT5=
EXTT6=
EXTT7=
EXTT8=
PLAYORDER=
